<?xml version="1.0" encoding="UTF-8"?>
<svg id="Layer_1" data-name="Layer 1" xmlns="http://www.w3.org/2000/svg" viewBox="0 0 500 500">
  <defs>
    <style>
      .cls-1 {
        fill: none;
      }

      .cls-2 {
        fill: #2d2326;
      }

      .cls-3 {
        fill: #f47920;
      }
    </style>
  </defs>
  <rect class="cls-1" width="500" height="500"/>
  <path class="cls-2" d="M85.68,339.42c-3.15-2.85-4.73-6.47-4.73-10.88s1.58-8.05,4.73-10.95c3.15-2.9,7.32-4.35,12.52-4.35s9.23,1.45,12.38,4.35c3.15,2.9,4.73,6.55,4.73,10.95s-1.58,7.9-4.73,10.8c-3.15,2.9-7.27,4.35-12.38,4.35s-9.38-1.42-12.52-4.28Z"/>
  <path class="cls-3" d="M160.58,337.87c-9.92-4.25-17.75-10.08-23.5-17.5-5.75-7.41-8.96-15.79-9.62-25.12h47.5c.66,4.5,2.75,8,6.25,10.5s7.83,3.75,13,3.75c4,0,7.16-.83,9.5-2.5,2.33-1.66,3.5-3.83,3.5-6.5,0-3.5-1.92-6.08-5.75-7.75-3.84-1.66-10.17-3.5-19-5.5-10-2-18.34-4.25-25-6.75-6.67-2.5-12.46-6.58-17.38-12.25-4.92-5.66-7.38-13.33-7.38-23,0-8.33,2.25-15.88,6.75-22.62s11.12-12.12,19.88-16.12,19.29-6,31.62-6c18.33,0,32.75,4.5,43.25,13.5s16.58,20.84,18.25,35.5h-44.25c-.84-4.5-2.79-7.96-5.88-10.38-3.09-2.41-7.21-3.62-12.38-3.62-4,0-7.04.75-9.12,2.25-2.09,1.5-3.12,3.59-3.12,6.25,0,3.34,1.91,5.88,5.75,7.62,3.83,1.75,10,3.54,18.5,5.38,10.16,2.17,18.62,4.59,25.38,7.25,6.75,2.67,12.66,6.96,17.75,12.88,5.08,5.92,7.62,13.96,7.62,24.12,0,8.17-2.38,15.5-7.12,22s-11.5,11.62-20.25,15.38-19.04,5.62-30.88,5.62c-12.67,0-23.96-2.12-33.88-6.38Z"/>
  <path class="cls-3" d="M364.45,342.5l-38.75-57.5v57.5h-49v-185h49v99.75l38.75-55h58.75l-55.25,70.5,56.25,69.75h-59.75Z"/>
</svg>